<?xml version="1.0" standalone="no"?>
<!DOCTYPE svg PUBLIC "-//W3C//DTD SVG 20010904//EN"
 "http://www.w3.org/TR/2001/REC-SVG-20010904/DTD/svg10.dtd">
<svg version="1.0" xmlns="http://www.w3.org/2000/svg"
 width="1032.000000pt" height="1032.000000pt" viewBox="0 0 1032.000000 1032.000000"
 preserveAspectRatio="xMidYMid meet">
<metadata>
Created by potrace 1.11, written by Peter Selinger 2001-2013
</metadata>
<g transform="translate(0.000000,1032.000000) scale(0.100000,-0.100000)"
fill="#000000" stroke="none">
<path d="M4985 8802 c-11 -2 -26 -9 -34 -15 -7 -6 -24 -13 -37 -14 -34 -5 -94
-32 -94 -42 0 -5 -16 -15 -35 -21 -44 -14 -181 -123 -258 -204 -93 -97 -162
-214 -182 -306 -4 -19 -23 -81 -41 -138 -31 -92 -34 -113 -34 -217 0 -90 4
-121 16 -140 9 -14 13 -25 9 -25 -5 0 -1 -8 7 -17 9 -10 18 -27 22 -39 3 -11
15 -30 26 -42 11 -11 31 -45 44 -74 14 -29 41 -69 62 -88 20 -19 52 -50 71
-68 30 -30 38 -33 78 -30 24 3 49 2 56 -2 6 -4 27 -3 46 2 28 8 37 6 46 -7 17
-22 75 -29 125 -16 32 9 48 21 66 49 36 56 74 86 117 91 4 1 9 12 13 25 3 13
33 50 66 82 34 32 81 87 106 121 43 59 131 234 137 270 1 10 6 23 10 30 4 7 8
29 8 50 1 21 5 55 10 76 12 45 15 144 6 172 -3 11 -9 36 -12 55 -10 57 -37
134 -51 146 -8 6 -25 36 -38 67 -14 30 -30 58 -35 62 -6 3 -11 14 -11 24 0 26
-143 161 -171 162 -36 1 -71 8 -83 17 -6 5 -20 6 -31 4z"/>
<path d="M7594 7838 c-32 -11 -69 -19 -83 -19 -14 1 -33 1 -41 2 -12 0 -305
-82 -425 -120 -16 -5 -75 -21 -130 -36 -97 -26 -244 -70 -410 -122 -44 -13
-107 -33 -140 -43 -60 -18 -140 -44 -375 -119 -200 -64 -668 -221 -710 -238
-8 -3 -19 -7 -25 -9 -5 -1 -44 -15 -85 -29 -41 -15 -104 -37 -140 -50 -66 -24
-193 -71 -220 -82 -8 -3 -19 -7 -25 -8 -19 -5 -432 -174 -610 -250 -432 -185
-1152 -525 -1139 -537 3 -3 -1 -5 -8 -5 -12 2 -201 -90 -292 -142 -22 -13 -63
-34 -90 -49 -28 -14 -94 -49 -146 -77 -52 -29 -120 -66 -150 -82 -128 -70
-345 -198 -348 -205 -2 -4 -8 -8 -13 -8 -5 0 -47 -24 -95 -52 -47 -29 -97 -60
-112 -68 -14 -9 -33 -30 -41 -48 -9 -17 -29 -37 -46 -44 -16 -6 -35 -18 -40
-25 -6 -8 -21 -19 -34 -26 -33 -16 -36 -46 -6 -57 13 -5 26 -13 29 -19 4 -6
13 -8 21 -5 8 3 19 -4 26 -18 6 -13 22 -32 36 -43 25 -21 26 -28 41 -197 4
-36 51 -21 132 42 57 44 78 56 118 64 17 4 45 20 61 34 49 46 69 60 101 77 28
15 34 15 48 2 10 -9 31 -19 47 -23 17 -4 35 -14 42 -23 11 -15 14 -14 40 2 15
9 66 36 113 60 47 23 87 45 88 50 2 4 8 7 14 7 6 0 51 20 102 44 50 24 126 60
169 80 42 20 111 52 152 71 41 19 77 35 79 35 3 0 37 15 78 34 40 18 107 48
148 66 41 17 93 40 115 50 209 94 994 408 1275 510 14 5 39 15 55 21 17 7 32
13 35 13 3 1 25 9 50 18 415 153 814 290 1070 367 202 60 598 174 840 242 118
33 238 67 265 75 86 25 258 69 587 150 312 77 318 79 328 107 7 21 6 38 -4 60
-11 28 -10 37 5 72 20 46 24 81 9 90 -5 3 -10 21 -10 40 0 24 -7 39 -25 53
-29 23 -41 54 -41 100 1 17 -2 32 -6 32 -12 0 -48 81 -48 106 0 12 -11 31 -25
42 -14 11 -25 26 -25 34 0 8 -21 21 -49 30 -46 15 -53 14 -107 -4z"/>
<path d="M8310 6935 c-41 -12 -120 -37 -175 -55 -107 -34 -220 -69 -245 -75
-8 -2 -62 -19 -120 -38 -325 -108 -1221 -403 -1255 -413 -55 -16 -445 -152
-470 -164 -11 -5 -83 -31 -160 -59 -154 -54 -234 -84 -282 -106 -17 -8 -34
-15 -37 -15 -3 0 -29 -11 -58 -23 -29 -13 -88 -39 -130 -57 -83 -35 -99 -58
-55 -81 12 -7 24 -15 27 -19 3 -3 44 -32 92 -63 48 -31 106 -80 130 -108 24
-28 54 -61 67 -73 14 -11 68 -63 120 -114 53 -51 109 -100 125 -109 15 -8 54
-42 85 -75 31 -34 102 -107 159 -164 56 -57 102 -109 102 -118 0 -8 14 -26 30
-40 l31 -26 187 94 c103 52 207 103 232 114 123 55 349 163 625 297 83 40 170
82 195 93 256 114 386 175 388 183 2 5 7 7 12 4 4 -2 36 9 71 26 35 17 137 64
226 105 89 40 170 77 180 83 10 5 79 35 153 66 259 110 285 128 275 192 -10
66 -60 238 -75 258 -4 6 -16 33 -26 60 -47 128 -147 292 -242 400 -43 48 -79
52 -182 20z"/>
<path d="M9696 5713 c-3 -3 -153 -38 -381 -89 -60 -14 -119 -27 -130 -29 -11
-3 -90 -20 -175 -39 -85 -19 -337 -81 -560 -136 -223 -56 -412 -103 -420 -105
-12 -3 -121 -30 -240 -60 -95 -24 -230 -61 -340 -95 -74 -23 -142 -43 -150
-45 -8 -2 -82 -24 -165 -50 -82 -26 -184 -57 -225 -70 -367 -113 -494 -159
-498 -178 -2 -10 30 -50 80 -100 123 -125 152 -164 204 -280 9 -21 46 -69 82
-105 35 -37 83 -96 107 -132 23 -36 49 -72 56 -80 31 -32 158 -356 170 -433
12 -81 27 -195 28 -224 1 -9 11 -8 39 4 53 22 365 141 442 168 36 13 97 35
135 50 129 48 402 143 420 145 3 0 34 12 69 25 36 13 101 36 145 51 108 36
116 48 107 173 -3 53 -16 142 -29 197 l-23 102 161 52 c237 77 518 165 620
193 99 28 319 87 344 92 74 15 349 90 359 98 40 32 63 137 66 297 2 81 -17
207 -35 241 -5 11 -7 19 -5 19 7 0 -59 191 -90 261 -30 66 -65 91 -124 87 -22
-1 -42 -3 -44 -5z"/>
<path d="M4225 5501 c-109 -46 -232 -105 -850 -406 -110 -53 -261 -126 -335
-162 -338 -163 -1008 -498 -1035 -517 -16 -11 -31 -20 -33 -18 -2 3 -45 -19
-502 -250 -540 -275 -739 -387 -796 -450 -53 -58 -53 -145 0 -349 37 -139 83
-268 111 -311 51 -76 114 -64 405 75 103 50 321 139 440 180 25 9 104 37 175
62 72 26 151 53 178 61 155 46 175 49 145 22 -22 -21 -103 -64 -403 -216 -104
-53 -219 -112 -255 -133 -36 -20 -96 -53 -135 -74 -38 -21 -109 -60 -158 -87
-48 -26 -90 -48 -94 -48 -3 0 -14 -6 -22 -13 -9 -8 -54 -34 -101 -59 -131 -70
-421 -237 -460 -266 -97 -71 -128 -137 -107 -232 22 -103 75 -261 109 -325 9
-16 24 -45 33 -64 8 -19 32 -55 52 -80 103 -128 165 -156 243 -111 65 38 467
230 481 230 5 0 9 5 9 10 0 6 6 10 14 10 8 0 40 13 72 29 33 16 100 48 149 71
50 23 159 76 244 116 84 41 157 74 163 74 5 0 6 5 2 12 -4 6 -3 8 3 5 6 -4 44
10 84 29 72 35 182 88 344 164 44 21 143 68 220 105 153 73 687 305 702 305
23 0 52 43 62 92 7 29 16 55 22 58 12 8 107 271 113 315 4 32 35 118 56 161
11 21 20 44 20 51 0 8 16 48 36 90 20 41 44 103 54 137 10 33 34 104 53 156
30 85 44 118 92 225 7 17 17 43 20 58 4 16 20 53 36 84 16 31 26 60 23 65 -3
5 0 17 8 26 29 34 57 92 74 151 9 34 21 61 25 61 5 0 9 5 9 11 0 6 8 23 19 37
10 15 33 68 50 117 17 50 39 101 49 115 11 14 31 68 46 120 15 52 44 126 65
165 21 38 42 88 46 110 4 22 15 54 26 72 11 17 22 48 24 70 3 21 8 53 11 71 6
29 4 32 -17 31 -13 0 -64 -17 -114 -38z"/>
<path d="M5162 4378 c-14 -27 -34 -78 -38 -95 -1 -6 -14 -28 -28 -49 -14 -21
-26 -45 -26 -53 0 -19 -77 -192 -121 -273 -21 -38 -43 -85 -49 -105 -7 -21
-27 -65 -45 -98 -18 -33 -48 -96 -66 -140 -18 -44 -36 -81 -41 -83 -4 -2 -8
-7 -8 -12 0 -4 -17 -37 -38 -71 -21 -35 -44 -80 -52 -99 -7 -19 -17 -39 -21
-45 -16 -23 -137 -264 -158 -317 -13 -32 -27 -58 -31 -58 -4 0 -20 -30 -36
-67 -16 -38 -31 -70 -35 -73 -7 -5 -19 -27 -81 -140 -20 -36 -50 -90 -67 -120
-17 -30 -31 -63 -31 -72 0 -10 -4 -18 -9 -18 -5 0 -13 -9 -16 -20 -10 -30 -45
-60 -72 -60 -18 0 -23 6 -23 25 0 16 -6 25 -15 25 -8 0 -15 -4 -15 -8 0 -10
-68 -41 -106 -47 -16 -3 -44 -8 -61 -11 -31 -6 -33 -4 -33 20 0 15 -4 25 -8
22 -5 -3 -25 4 -45 14 -21 11 -37 17 -37 14 0 -3 -15 4 -34 15 -41 26 -52 26
-99 1 -46 -25 -47 -25 -47 4 0 30 -20 47 -48 41 -14 -2 -22 1 -22 10 0 8 -13
21 -30 30 -16 9 -30 20 -30 25 0 6 -17 10 -39 10 -48 0 -63 17 -69 80 -3 34
-9 50 -19 50 -17 0 -109 -46 -209 -105 -41 -25 -80 -45 -85 -45 -5 0 -9 -4 -9
-8 0 -4 -19 -18 -42 -30 -110 -58 -216 -130 -235 -159 -40 -61 -21 -301 36
-461 46 -127 171 -282 229 -282 26 -1 1553 756 1560 773 2 4 7 7 12 7 4 0 75
32 157 71 81 39 184 88 228 109 44 21 146 70 227 108 81 39 156 73 167 77 12
3 21 11 21 16 0 5 6 9 12 9 7 0 62 25 123 55 61 30 122 59 136 64 13 6 31 15
39 20 32 19 271 131 279 131 16 0 18 24 6 55 -7 17 -13 52 -14 79 -1 27 -7 59
-14 70 -6 12 -10 25 -9 30 3 10 -51 189 -83 271 -13 33 -31 86 -40 118 -10 31
-21 57 -24 57 -3 0 -12 15 -20 33 -32 75 -74 152 -92 168 -10 9 -19 28 -19 42
0 14 -4 27 -8 29 -5 2 -29 36 -55 76 -52 80 -100 132 -122 132 -8 0 -15 5 -15
11 0 14 -193 209 -207 209 -5 0 -18 9 -28 20 -24 26 -39 25 -53 -2z"/>
</g>
</svg>
