<svg width="1449" height="5039" viewBox="0 0 1449 5039" fill="none" xmlns="http://www.w3.org/2000/svg">
<g clip-path="url(#clip0_353_104)">
<path d="M519.5 3C432.8 28 192.5 114.5 111 214.5C-20.2 375.4 383.6 384 766.5 431C1174 481 1459.5 598 1444.5 799C1429.1 1005 874 963.5 579.5 984C285 1004.5 279.4 1123.2 338.5 1185C405.5 1255 604.6 1247.1 629 1324.5C652.5 1399 557.9 1459.7 296.5 1442C89.5 1428 32.5 1498 9.50001 1564C-13.5 1630 25.5 1738 118.5 1814C245.8 1918 387 1942 652 1984C917 2026 1027 2036 1203 2111C1278.3 2143.1 1328.8 2186.8 1353.5 2255C1376.8 2319.3 1384.8 2399 1359.2 2478C1324.9 2583.8 1167 2713 1058 2753C965.5 2786.9 909 2801.2 846 2756.5C794.4 2719.9 814.5 2655 861.5 2655C938.2 2658.3 963 2748 917.5 2806C882.3 2849.2 829.1 2895.2 781 2927C683 2981 541 3033 358 3057C222.5 3074.8 55.3 3134.8 23 3241C-12 3356 56 3475 245 3500C434 3525 1028.1 3261.2 1258 3423C1339 3480 1369 3561 1359 3635C1334.3 3818 1080.5 3985.8 944.5 4077C814 4164.5 773.3 4187.7 650.4 4250.2C565.5 4293.4 511 4322 430 4354.5C359.6 4382.7 268.7 4407.5 212.5 4357.5C158.5 4309.5 216.5 4242 259 4285C296.5 4323 257 4395 231.5 4445.5C206 4496 145.6 4613.5 177 4723C231.1 4911.5 369.6 5036 444.6 5036" stroke="#E30613" stroke-width="6" stroke-linecap="round"/>
</g>
<defs>
<clipPath id="clip0_353_104">
<rect width="1449" height="5039" fill="white"/>
</clipPath>
</defs>
</svg>
