<svg width="1449" height="5039" viewBox="0 0 1449 5039" fill="none" xmlns="http://www.w3.org/2000/svg">
<path d="M444.5 5036C369.5 5036 231.044 4911.47 176.936 4723C145.5 4613.5 205.936 4496 231.436 4445.5C256.936 4395 296.437 4323 258.937 4285C216.485 4241.98 158.436 4309.5 212.436 4357.5C268.636 4407.46 359.564 4382.74 429.937 4354.5C510.937 4322 565.502 4293.43 650.367 4250.22C773.217 4187.68 813.938 4164.5 944.439 4077C1080.39 3985.84 1334.2 3818 1358.93 3635C1368.93 3561 1338.93 3480 1257.93 3423C1028.08 3261.25 433.934 3525 244.935 3500C55.9352 3475 -12.0647 3356 22.9354 3241C55.2561 3134.8 222.469 3074.77 357.937 3057C540.937 3033 682.937 2981 780.938 2927C829.009 2895.17 882.19 2849.22 917.438 2806C962.938 2748 938.133 2658.34 861.438 2655C814.438 2655 794.382 2719.94 845.938 2756.5C908.911 2801.16 965.468 2786.91 1057.94 2753C1166.92 2713.04 1324.75 2583.79 1359.1 2478C1384.75 2399 1376.7 2319.26 1353.44 2255C1328.76 2186.81 1278.26 2143.1 1202.93 2111C1026.93 2036 916.934 2026 651.935 1984C386.935 1942 245.712 1918 118.453 1814C25.4522 1738 -13.5476 1630 9.4502 1564C32.448 1498 89.4504 1428 296.45 1442C557.883 1459.68 652.45 1399 628.95 1324.5C604.542 1247.12 405.45 1255 338.45 1185C279.327 1123.23 284.95 1004.5 579.45 984C873.95 963.5 1429.08 1005 1444.45 799C1459.45 598 1173.95 481 766.45 431C383.637 384.029 -20.2171 375.442 110.95 214.5C192.45 114.5 432.783 28 519.45 3" stroke="#E30613" stroke-width="6" stroke-linecap="round"/>
</svg>
